<?xml version="1.0" encoding="UTF-8" standalone="no"?><!DOCTYPE svg PUBLIC "-//W3C//DTD SVG 1.1//EN" "http://www.w3.org/Graphics/SVG/1.1/DTD/svg11.dtd"><svg width="100%" height="100%" viewBox="0 0 147 122" version="1.1" xmlns="http://www.w3.org/2000/svg" xmlns:xlink="http://www.w3.org/1999/xlink" xml:space="preserve" xmlns:serif="http://www.serif.com/" style="fill-rule:evenodd;clip-rule:evenodd;stroke-linejoin:round;stroke-miterlimit:2;"><g><path d="M5.416,5.922c-0.225,-0.044 -0.393,-0.231 -0.412,-0.459c-0.019,-0.228 0.116,-0.441 0.33,-0.522c24.212,-9.081 46.918,-5.662 68.101,10.4c0.008,0.006 0.015,0.012 0.023,0.019c9.17,7.829 22.975,12.212 33.47,11.102c0.189,-0.023 0.374,0.06 0.483,0.215c0.108,0.156 0.122,0.358 0.036,0.527c-2.685,5.254 -16.809,32.873 -18.509,36.199c-0.101,0.196 -0.314,0.306 -0.532,0.274c-13.715,-2.007 -19.603,-2.598 -32.249,-13.05c-0.001,-0.002 -0.003,-0.003 -0.004,-0.004c-4.41,-3.734 -9.5,-9.286 -14.935,-15.759c-0.015,-0.017 -0.028,-0.035 -0.04,-0.054c-10.925,-17.124 -22.924,-26.165 -35.762,-28.888Z" style="fill:url(#_Linear1);"/><path d="M145.824,26.915c0.276,0.124 0.599,0.084 0.836,-0.104c0.238,-0.188 0.351,-0.492 0.294,-0.79c-0.593,-3.004 -1.679,-5.723 -3.309,-8.129c-0.31,-0.45 -0.427,-1.007 -0.322,-1.543c1.752,-9.194 -4.319,-15.611 -14.651,-15.305c-1.707,0.042 -3.37,0.548 -4.812,1.463c-11.342,7.16 -9.771,18.893 -24.128,25.173c-0.561,0.244 -1.143,0.437 -1.739,0.577c-9.299,2.139 -19.281,-2.492 -29.556,-10.015c-21.281,-15.582 -39.269,-18.259 -68.074,-10.247c-0.214,0.059 -0.362,0.253 -0.363,0.475c-0.001,0.222 0.146,0.418 0.36,0.478c11.547,3.233 17.923,6.926 26.189,15.849c8.319,8.98 4.767,7.854 11.806,16.425c12.647,15.4 25.127,22.609 36.138,26.499c0,0 0.001,0 0.001,0c5.296,1.884 10.586,3.669 15.83,4.694c0.796,0.151 1.586,-0.287 1.881,-1.042c1.564,-4.069 2.671,-8.364 3.229,-12.931c0.014,-0.132 0.124,-0.232 0.256,-0.236c0.133,-0.003 0.247,0.091 0.269,0.222c1.313,8.463 0.34,17.517 -6.15,27.995c-8.826,15.131 -10.464,26.113 -7.921,34.68c0.066,0.205 0.257,0.345 0.473,0.346c0.215,0.002 0.408,-0.136 0.476,-0.341c2.807,-8.146 8.173,-15.155 16.335,-20.921c0,0 0,0 0,0c22.317,-15.724 35.273,-33.019 33.341,-52.811c-0.028,-0.281 -0.084,-0.558 -0.167,-0.828c-2.263,-7.357 -4.419,-13.405 -2.016,-16.503c3.405,-4.388 9.853,-5.592 15.494,-3.13Z" style="fill:url(#_Linear2);"/></g><defs><linearGradient id="_Linear1" x1="0" y1="0" x2="1" y2="0" gradientUnits="userSpaceOnUse" gradientTransform="matrix(69.188,-39.9457,46.4546,80.4618,26.8821,45.8203)"><stop offset="0" style="stop-color:#d3d3d3;stop-opacity:1"/><stop offset="1" style="stop-color:#9b9090;stop-opacity:1"/></linearGradient><linearGradient id="_Linear2" x1="0" y1="0" x2="1" y2="0" gradientUnits="userSpaceOnUse" gradientTransform="matrix(108.129,-62.4284,70.3292,121.814,33.8098,69.3886)"><stop offset="0" style="stop-color:#9b9090;stop-opacity:1"/><stop offset="1" style="stop-color:#d3d3d3;stop-opacity:1"/></linearGradient></defs></svg>