<svg xmlns="http://www.w3.org/2000/svg" xmlns:xlink="http://www.w3.org/1999/xlink" version="1.1" width="40" height="40" border='1px solid red' viewBox="0 0 256 256" xml:space="preserve">

<defs>
</defs>
<g style="stroke: none; stroke-width: 0; stroke-dasharray: none; stroke-linecap: butt; stroke-linejoin: miter; stroke-miterlimit: 10; fill: none; fill-rule: nonzero; opacity: 1;" transform="translate(1.4065934065934016 1.4065934065934016) scale(2.81 2.81)" >
	<path d="M 15.84 45 c 0 0.973 -0.789 1.762 -1.762 1.762 c -0.973 0 -1.763 -0.789 -1.763 -1.762 c 0 -0.973 0.789 -1.763 1.763 -1.763 C 15.051 43.238 15.84 44.027 15.84 45 z" style="stroke: none; stroke-width: 1; stroke-dasharray: none; stroke-linecap: butt; stroke-linejoin: miter; stroke-miterlimit: 10; fill: rgb(248,164,167); fill-rule: nonzero; opacity: 1;" transform=" matrix(1 0 0 1 0 0) " stroke-linecap="round" />
	<path d="M 15.84 32.685 c 0 0.973 -0.789 1.763 -1.762 1.763 c -0.973 0 -1.763 -0.789 -1.763 -1.763 s 0.789 -1.763 1.763 -1.763 C 15.051 30.923 15.84 31.712 15.84 32.685 z" style="stroke: none; stroke-width: 1; stroke-dasharray: none; stroke-linecap: butt; stroke-linejoin: miter; stroke-miterlimit: 10; fill: rgb(248,164,167); fill-rule: nonzero; opacity: 1;" transform=" matrix(1 0 0 1 0 0) " stroke-linecap="round" />
	<path d="M 15.84 38.843 c 0 0.973 -0.789 1.763 -1.762 1.763 c -0.973 0 -1.763 -0.789 -1.763 -1.763 c 0 -0.973 0.789 -1.763 1.763 -1.763 C 15.051 37.08 15.84 37.869 15.84 38.843 z" style="stroke: none; stroke-width: 1; stroke-dasharray: none; stroke-linecap: butt; stroke-linejoin: miter; stroke-miterlimit: 10; fill: rgb(237,28,36); fill-rule: nonzero; opacity: 1;" transform=" matrix(1 0 0 1 0 0) " stroke-linecap="round" />
	<path d="M 9.446 33.454 c 0.487 0.843 0.198 1.921 -0.645 2.408 c -0.843 0.487 -1.921 0.198 -2.408 -0.645 c -0.487 -0.843 -0.198 -1.921 0.645 -2.408 C 7.882 32.322 8.96 32.611 9.446 33.454 z" style="stroke: none; stroke-width: 1; stroke-dasharray: none; stroke-linecap: butt; stroke-linejoin: miter; stroke-miterlimit: 10; fill: rgb(237,28,36); fill-rule: nonzero; opacity: 1;" transform=" matrix(1 0 0 1 0 0) " stroke-linecap="round" />
	<path d="M 4.294 37.316 c 0.843 0.487 1.132 1.565 0.645 2.408 c -0.487 0.843 -1.565 1.132 -2.408 0.645 c -0.843 -0.487 -1.132 -1.565 -0.645 -2.408 C 2.373 37.118 3.451 36.83 4.294 37.316 z" style="stroke: none; stroke-width: 1; stroke-dasharray: none; stroke-linecap: butt; stroke-linejoin: miter; stroke-miterlimit: 10; fill: rgb(237,28,36); fill-rule: nonzero; opacity: 1;" transform=" matrix(1 0 0 1 0 0) " stroke-linecap="round" />
	<path d="M 1.762 43.238 c 0.973 0 1.763 0.789 1.763 1.763 c 0 0.973 -0.789 1.762 -1.763 1.762 C 0.789 46.762 0 45.973 0 45 C 0 44.027 0.789 43.238 1.762 43.238 z" style="stroke: none; stroke-width: 1; stroke-dasharray: none; stroke-linecap: butt; stroke-linejoin: miter; stroke-miterlimit: 10; fill: rgb(237,28,36); fill-rule: nonzero; opacity: 1;" transform=" matrix(1 0 0 1 0 0) " stroke-linecap="round" />
	<path d="M 2.531 49.631 c 0.843 -0.487 1.921 -0.198 2.408 0.645 c 0.487 0.843 0.198 1.921 -0.645 2.408 c -0.843 0.487 -1.921 0.198 -2.408 -0.645 C 1.399 51.196 1.688 50.118 2.531 49.631 z" style="stroke: none; stroke-width: 1; stroke-dasharray: none; stroke-linecap: butt; stroke-linejoin: miter; stroke-miterlimit: 10; fill: rgb(237,28,36); fill-rule: nonzero; opacity: 1;" transform=" matrix(1 0 0 1 0 0) " stroke-linecap="round" />
	<path d="M 6.394 54.784 c 0.487 -0.843 1.565 -1.132 2.408 -0.645 c 0.843 0.487 1.132 1.565 0.645 2.408 c -0.487 0.843 -1.565 1.132 -2.408 0.645 C 6.196 56.705 5.907 55.627 6.394 54.784 z" style="stroke: none; stroke-width: 1; stroke-dasharray: none; stroke-linecap: butt; stroke-linejoin: miter; stroke-miterlimit: 10; fill: rgb(237,28,36); fill-rule: nonzero; opacity: 1;" transform=" matrix(1 0 0 1 0 0) " stroke-linecap="round" />
	<path d="M 12.315 57.315 c 0 -0.973 0.789 -1.762 1.762 -1.762 c 0.973 0 1.763 0.789 1.763 1.762 c 0 0.973 -0.789 1.763 -1.763 1.763 C 13.104 59.077 12.315 58.288 12.315 57.315 z" style="stroke: none; stroke-width: 1; stroke-dasharray: none; stroke-linecap: butt; stroke-linejoin: miter; stroke-miterlimit: 10; fill: rgb(237,28,36); fill-rule: nonzero; opacity: 1;" transform=" matrix(1 0 0 1 0 0) " stroke-linecap="round" />
	<path d="M 18.708 56.546 c -0.487 -0.843 -0.198 -1.921 0.645 -2.408 c 0.843 -0.487 1.921 -0.198 2.408 0.645 c 0.487 0.843 0.198 1.921 -0.645 2.408 C 20.273 57.678 19.195 57.389 18.708 56.546 z" style="stroke: none; stroke-width: 1; stroke-dasharray: none; stroke-linecap: butt; stroke-linejoin: miter; stroke-miterlimit: 10; fill: rgb(237,28,36); fill-rule: nonzero; opacity: 1;" transform=" matrix(1 0 0 1 0 0) " stroke-linecap="round" />
	<path d="M 23.861 52.684 c -0.843 -0.487 -1.132 -1.565 -0.645 -2.408 c 0.487 -0.843 1.565 -1.132 2.408 -0.645 c 0.843 0.487 1.132 1.565 0.645 2.408 C 25.782 52.882 24.704 53.171 23.861 52.684 z" style="stroke: none; stroke-width: 1; stroke-dasharray: none; stroke-linecap: butt; stroke-linejoin: miter; stroke-miterlimit: 10; fill: rgb(237,28,36); fill-rule: nonzero; opacity: 1;" transform=" matrix(1 0 0 1 0 0) " stroke-linecap="round" />
	<path d="M 26.392 46.762 c -0.973 0 -1.763 -0.789 -1.763 -1.762 c 0 -0.973 0.789 -1.763 1.763 -1.763 s 1.762 0.789 1.762 1.763 C 28.155 45.973 27.366 46.762 26.392 46.762 z" style="stroke: none; stroke-width: 1; stroke-dasharray: none; stroke-linecap: butt; stroke-linejoin: miter; stroke-miterlimit: 10; fill: rgb(248,164,167); fill-rule: nonzero; opacity: 1;" transform=" matrix(1 0 0 1 0 0) " stroke-linecap="round" />
	<path d="M 25.623 40.369 c -0.843 0.487 -1.921 0.198 -2.408 -0.645 c -0.487 -0.843 -0.198 -1.921 0.645 -2.408 c 0.843 -0.487 1.921 -0.198 2.408 0.645 C 26.755 38.804 26.466 39.882 25.623 40.369 z" style="stroke: none; stroke-width: 1; stroke-dasharray: none; stroke-linecap: butt; stroke-linejoin: miter; stroke-miterlimit: 10; fill: rgb(248,164,167); fill-rule: nonzero; opacity: 1;" transform=" matrix(1 0 0 1 0 0) " stroke-linecap="round" />
	<path d="M 21.761 35.216 c -0.487 0.843 -1.565 1.132 -2.408 0.645 c -0.843 -0.487 -1.132 -1.565 -0.645 -2.408 c 0.487 -0.843 1.565 -1.132 2.408 -0.645 C 21.959 33.295 22.248 34.373 21.761 35.216 z" style="stroke: none; stroke-width: 1; stroke-dasharray: none; stroke-linecap: butt; stroke-linejoin: miter; stroke-miterlimit: 10; fill: rgb(248,164,167); fill-rule: nonzero; opacity: 1;" transform=" matrix(1 0 0 1 0 0) " stroke-linecap="round" />
	<path d="M 9.626 40.395 c 0.843 0.487 1.132 1.565 0.645 2.408 c -0.487 0.843 -1.565 1.132 -2.408 0.645 c -0.843 -0.487 -1.132 -1.565 -0.645 -2.408 C 7.705 40.197 8.783 39.908 9.626 40.395 z" style="stroke: none; stroke-width: 1; stroke-dasharray: none; stroke-linecap: butt; stroke-linejoin: miter; stroke-miterlimit: 10; fill: rgb(237,28,36); fill-rule: nonzero; opacity: 1;" transform=" matrix(1 0 0 1 0 0) " stroke-linecap="round" />
	<path d="M 7.864 46.552 c 0.843 -0.487 1.921 -0.198 2.408 0.645 c 0.487 0.843 0.198 1.921 -0.645 2.408 c -0.843 0.487 -1.921 0.198 -2.408 -0.645 C 6.732 48.117 7.021 47.039 7.864 46.552 z" style="stroke: none; stroke-width: 1; stroke-dasharray: none; stroke-linecap: butt; stroke-linejoin: miter; stroke-miterlimit: 10; fill: rgb(237,28,36); fill-rule: nonzero; opacity: 1;" transform=" matrix(1 0 0 1 0 0) " stroke-linecap="round" />
	<path d="M 12.315 51.157 c 0 -0.973 0.789 -1.762 1.762 -1.762 c 0.973 0 1.763 0.789 1.763 1.762 c 0 0.973 -0.789 1.763 -1.763 1.763 C 13.104 52.92 12.315 52.131 12.315 51.157 z" style="stroke: none; stroke-width: 1; stroke-dasharray: none; stroke-linecap: butt; stroke-linejoin: miter; stroke-miterlimit: 10; fill: rgb(237,28,36); fill-rule: nonzero; opacity: 1;" transform=" matrix(1 0 0 1 0 0) " stroke-linecap="round" />
	<path d="M 18.528 49.605 c -0.843 -0.487 -1.132 -1.565 -0.645 -2.408 c 0.487 -0.843 1.565 -1.132 2.408 -0.645 c 0.843 0.487 1.132 1.565 0.645 2.408 C 20.449 49.803 19.371 50.092 18.528 49.605 z" style="stroke: none; stroke-width: 1; stroke-dasharray: none; stroke-linecap: butt; stroke-linejoin: miter; stroke-miterlimit: 10; fill: rgb(237,28,36); fill-rule: nonzero; opacity: 1;" transform=" matrix(1 0 0 1 0 0) " stroke-linecap="round" />
	<path d="M 20.291 43.448 c -0.843 0.487 -1.921 0.198 -2.408 -0.645 c -0.487 -0.843 -0.198 -1.921 0.645 -2.408 c 0.843 -0.487 1.921 -0.198 2.408 0.645 C 21.423 41.883 21.134 42.961 20.291 43.448 z" style="stroke: none; stroke-width: 1; stroke-dasharray: none; stroke-linecap: butt; stroke-linejoin: miter; stroke-miterlimit: 10; fill: rgb(237,28,36); fill-rule: nonzero; opacity: 1;" transform=" matrix(1 0 0 1 0 0) " stroke-linecap="round" />
	<path d="M 82.371 42.589 h 3.343 v 1.749 h 0.058 c 0.719 -1.323 1.657 -2.02 3.13 -2.02 c 0.374 0 0.806 0.029 1.099 0.115 v 3.061 c -0.454 -0.132 -0.938 -0.23 -1.421 -0.23 c -2.543 0 -2.865 1.479 -2.865 3.642 v 4.54 h -3.343 V 42.589 z" style="stroke: none; stroke-width: 1; stroke-dasharray: none; stroke-linecap: butt; stroke-linejoin: miter; stroke-miterlimit: 10; fill: rgb(237,28,36); fill-rule: nonzero; opacity: 1;" transform=" matrix(1 0 0 1 0 0) " stroke-linecap="round" />
	<path d="M 79.948 36.554 h -3.343 v 16.887 h 3.343 V 36.554 z" style="stroke: none; stroke-width: 1; stroke-dasharray: none; stroke-linecap: butt; stroke-linejoin: miter; stroke-miterlimit: 10; fill: rgb(237,28,36); fill-rule: nonzero; opacity: 1;" transform=" matrix(1 0 0 1 0 0) " stroke-linecap="round" />
	<path d="M 65.984 47.635 l -3.613 -5.046 h 3.935 l 1.927 2.952 l 1.853 -2.952 h 3.717 l -3.504 5.046 l 4.177 5.811 h -3.964 l -2.382 -3.619 l -2.52 3.619 h -3.935 L 65.984 47.635 z" style="stroke: none; stroke-width: 1; stroke-dasharray: none; stroke-linecap: butt; stroke-linejoin: miter; stroke-miterlimit: 10; fill: rgb(237,28,36); fill-rule: nonzero; opacity: 1;" transform=" matrix(1 0 0 1 0 0) " stroke-linecap="round" />
	<path d="M 56.272 42.589 h 3.32 v 10.857 h -3.32 V 42.589 z M 57.935 37.227 c 1.076 0 1.956 0.869 1.956 1.939 c 0 1.07 -0.88 1.951 -1.956 1.951 c -1.07 0 -1.95 -0.88 -1.95 -1.951 C 55.978 38.096 56.859 37.227 57.935 37.227 z" style="stroke: none; stroke-width: 1; stroke-dasharray: none; stroke-linecap: butt; stroke-linejoin: miter; stroke-miterlimit: 10; fill: rgb(237,28,36); fill-rule: nonzero; opacity: 1;" transform=" matrix(1 0 0 1 0 0) " stroke-linecap="round" />
	<path d="M 45.265 44.822 l -7.819 -7.319 v 15.943 h 3.694 v -7.572 l 4.045 3.746 l 4.126 -3.74 v 7.566 h 3.694 V 37.48 L 45.265 44.822 z" style="stroke: none; stroke-width: 1; stroke-dasharray: none; stroke-linecap: butt; stroke-linejoin: miter; stroke-miterlimit: 10; fill: rgb(237,28,36); fill-rule: nonzero; opacity: 1;" transform=" matrix(1 0 0 1 0 0) " stroke-linecap="round" />
</g>
</svg>